<svg
   width="18"
   height="18"
   viewBox="0 0 18 18"
   fill="currentColor"
   version="1.1"
   xmlns="http://www.w3.org/2000/svg"
   xmlns:svg="http://www.w3.org/2000/svg"
>
  <path
     d="m 0.37657954,0.37657942 c 0.50210608,-0.50210609 1.31617456,-0.50210609 1.81828056,0 L 9.0000203,7.1817604 15.805187,0.37657942 c 0.502068,-0.50210609 1.316193,-0.50210609 1.818262,0 0.502068,0.50210611 0.502068,1.31617458 0,1.81828068 l -6.805171,6.8051607 6.805168,6.8051652 c 0.502069,0.502069 0.502069,1.316194 0,1.818263 -0.502068,0.502068 -1.316193,0.502068 -1.818261,0 l -6.8051647,-6.80517 -6.8051547,6.805168 c -0.5021061,0.502068 -1.31617452,0.502068 -1.81828062,0 -0.50210608,-0.502069 -0.50210608,-1.316194 0,-1.818262 L 7.1817604,9.0000208 0.37657935,2.1948657 c -0.50210608,-0.502106 -0.50210608,-1.31617455 1.9e-7,-1.81828628 z"
  />
</svg>
